<svg width="64" height="64" viewBox="0 0 64 64" fill="none" xmlns="http://www.w3.org/2000/svg">
  <!-- Angular eye shape - black outline with jagged upper lid -->
  <path d="M 8 28 C 8 20 12 14 18 12 L 20 8 C 16 6 12 8 10 12 L 6 16 C 4 20 4 24 6 28 L 10 36 C 12 40 16 44 20 46 L 18 42 C 14 40 10 36 8 28 Z" fill="#000000"/>
  <path d="M 56 28 C 56 36 52 42 46 44 L 44 48 C 48 50 52 48 54 44 L 58 40 C 60 36 60 32 58 28 L 54 20 C 52 16 48 12 44 10 L 46 14 C 50 16 54 20 56 28 Z" fill="#000000"/>
  
  <!-- Jagged upper eyelid details -->
  <path d="M 18 12 L 20 8 L 22 10 L 20 12 Z" fill="#000000"/>
  <path d="M 46 44 L 44 48 L 42 46 L 44 44 Z" fill="#000000"/>
  
  <!-- Lower eyelid curve -->
  <path d="M 10 36 C 12 40 16 44 20 46" stroke="#000000" stroke-width="2" fill="none"/>
  <path d="M 54 36 C 52 40 48 44 44 46" stroke="#000000" stroke-width="2" fill="none"/>
  
  <!-- White circular center (pupil/iris area) -->
  <circle cx="32" cy="32" r="12" fill="#FFFFFF"/>
  
  <!-- Orange signal/WiFi icon in center -->
  <g transform="translate(32, 32)">
    <!-- Central orange dot -->
    <circle cx="0" cy="0" r="2.5" fill="#FF6600"/>
    
    <!-- Signal waves radiating outward - top right arc -->
    <path d="M 0 -3 Q 3 -3 3 0" stroke="#FF6600" stroke-width="2.5" fill="none" stroke-linecap="round"/>
    <path d="M 0 -5 Q 5 -5 5 0" stroke="#FF6600" stroke-width="2.5" fill="none" stroke-linecap="round"/>
    
    <!-- Signal waves - bottom right arc -->
    <path d="M 0 3 Q 3 3 3 0" stroke="#FF6600" stroke-width="2.5" fill="none" stroke-linecap="round"/>
    <path d="M 0 5 Q 5 5 5 0" stroke="#FF6600" stroke-width="2.5" fill="none" stroke-linecap="round"/>
  </g>
</svg>
